# xmcd
#
# Track frame offsets:
#	150
#	12565
#	17147
#	19477
#	20397
#	33200
#	37782
#	40112
#	41042
#	55020
#	59595
#	61920
#	62832
#	75760
#	80337
#	82740
#	83667
#	97020
#	101595
#	103917
#	104840
#	119297
#	123950
#	126347
#	127292
#	141655
#	146235
#	148635
#	149555
#	164010
#	168595
#	170925
#	171882
#	185375
#	190025
#	192422
#	193387
#	207752
#	212407
#	214810
#	215767
#	230710
#	235295
#	237622
#	238560
#	252575
#	257227
#	259627
#	260565
#	277952
#	282525
#	284855
#	285812
#	299035
#	303690
#	306087
#	307050
#	324252
#	328910
#	331312
#
# Disc length: 4428 seconds
#
# Revision: 1
# Processed by: cddbd v1.4PL0 Copyright (c) Steve Scherf et al.
# Submitted via: audiograbber 1.80.04
#
DISCID=bb114a3c
DTITLE=Country - Master Source Vol. 4 (disk 12)
DYEAR=1900
DGENRE=
TTITLE0=The High Cost of Low Living
TTITLE1=The High Cost of Low Living 2
TTITLE2=The High Cost of Low Living 3
TTITLE3=The High Cost of Low Living 4
TTITLE4=Perfect Situation for a Fool
TTITLE5=Perfect Situation for a Fool 2
TTITLE6=Perfect Situation for a Fool 3
TTITLE7=Perfect Situation for a Fool 4
TTITLE8=Sleepin' With My Boots On
TTITLE9=Sleepin' With My Boots On 2
TTITLE10=Sleepin' With My Boots On 3
TTITLE11=Sleepin' With My Boots On 4
TTITLE12=I Remembered Your Name
TTITLE13=I Remembered Your Name 2
TTITLE14=I Remembered Your Name 3
TTITLE15=I Remembered Your Name 4
TTITLE16=24 Thorns
TTITLE17=24 Thorns 2
TTITLE18=24 Thorns 3
TTITLE19=24 Thorns 4
TTITLE20=Always Had Enough
TTITLE21=Always Had Enough 2
TTITLE22=Always Had Enough 3
TTITLE23=Always Had Enough 4
TTITLE24=More Or Less
TTITLE25=More Or Less 2
TTITLE26=More Or Less 3
TTITLE27=More Or Less 4
TTITLE28=Perfect Love
TTITLE29=Perfect Love 2
TTITLE30=Perfect Love 3
TTITLE31=Perfect Love 4
TTITLE32=Put Your Heart Into It
TTITLE33=Put Your Heart Into It 2
TTITLE34=Put Your Heart Into It 3
TTITLE35=Put Your Heart Into It 4
TTITLE36=Livin' In Paradise
TTITLE37=Livin' In Paradise 2
TTITLE38=Livin' In Paradise 3
TTITLE39=Livin' In Paradise 4
TTITLE40=The Longest Goodbye
TTITLE41=The Longest Goodbye 2
TTITLE42=The Longest Goodbye 3
TTITLE43=The Longest Goodbye 4
TTITLE44=Let The Record Show
TTITLE45=Let The Record Show 2
TTITLE46=Let The Record Show 3
TTITLE47=Let The Record Show 4
TTITLE48=If Only
TTITLE49=If Only 2
TTITLE50=If Only 3
TTITLE51=If Only 4
TTITLE52=Just Because We're Over
TTITLE53=Just Because We're Over 2
TTITLE54=Just Because We're Over 3
TTITLE55=Just Because We're Over 4
TTITLE56=Country And Roads
TTITLE57=Country And Roads 2
TTITLE58=Country And Roads 3
TTITLE59=Country And Roads 4
EXTD=
EXTT0=
EXTT1=
EXTT2=
EXTT3=
EXTT4=
EXTT5=
EXTT6=
EXTT7=
EXTT8=
EXTT9=
EXTT10=
EXTT11=
EXTT12=
EXTT13=
EXTT14=
EXTT15=
EXTT16=
EXTT17=
EXTT18=
EXTT19=
EXTT20=
EXTT21=
EXTT22=
EXTT23=
EXTT24=
EXTT25=
EXTT26=
EXTT27=
EXTT28=
EXTT29=
EXTT30=
EXTT31=
EXTT32=
EXTT33=
EXTT34=
EXTT35=
EXTT36=
EXTT37=
EXTT38=
EXTT39=
EXTT40=
EXTT41=
EXTT42=
EXTT43=
EXTT44=
EXTT45=
EXTT46=
EXTT47=
EXTT48=
EXTT49=
EXTT50=
EXTT51=
EXTT52=
EXTT53=
EXTT54=
EXTT55=
EXTT56=
EXTT57=
EXTT58=
EXTT59=
PLAYORDER=
